<svg width="26" height="36" viewBox="0 0 26 36" fill="none" xmlns="http://www.w3.org/2000/svg">
<path d="M22.8125 17.6415L21.0973 14.9913L20.8692 18.1399C20.7375 19.9588 19.6086 21.0714 18.5962 21.5061C17.5045 21.9748 16.4707 21.7689 15.9626 20.9815C15.0777 19.6107 15.5113 18.802 16.421 17.3742C17.4106 15.8212 18.7659 13.6942 17.5581 9.85148C16.652 6.96825 14.8833 4.55196 12.301 2.66962C11.6148 2.16949 10.884 1.72062 10.1289 1.33545L7.51048 0L8.67711 2.69796C9.37763 4.31775 10.4012 7.56506 9.38713 11.1144C8.77056 13.2725 7.0408 15.0086 5.36792 16.6875C3.00366 19.0605 0.323914 21.75 0.323914 26.0475C0.323914 29.3826 1.55762 32.0477 3.99064 33.9689C5.66366 35.2898 7.45213 35.9055 7.73492 35.9719L7.85431 35.9999H20.1205L20.4016 35.7907C23.5104 33.477 25.2637 30.6763 25.6128 27.4663C26.058 23.3707 24.0495 19.5528 22.8125 17.6415ZM14.9237 33.8842H12.2744C11.8897 33.528 11.3914 32.9371 11.3818 32.4586C11.3752 32.1264 11.7095 31.7868 11.9911 31.5604C13.2321 30.5627 13.9185 29.4569 14.0896 28.1794C14.094 28.146 14.0981 28.1125 14.1019 28.0789C14.8645 28.6906 15.5221 29.4855 15.8151 30.3883C16.1906 31.5452 15.8904 32.7193 14.9237 33.8842ZM23.5093 27.2377C23.2365 29.7462 21.8589 31.9808 19.4134 33.884H17.4459C18.1346 32.5342 18.274 31.1102 17.8276 29.7349C17.1991 27.7988 15.3753 25.9831 13.1812 25.109L10.997 24.2388L11.7945 26.4506C11.9867 26.9838 12.0515 27.4574 11.9925 27.8984C11.8957 28.6217 11.4739 29.2611 10.6655 29.9111C10.0142 30.4348 9.24277 31.309 9.26654 32.5007C9.27652 33.0022 9.42102 33.4687 9.62823 33.8839H8.1466C7.7537 33.7465 6.51662 33.2671 5.30204 32.308C3.40283 30.8084 2.4399 28.7021 2.4399 26.0473C2.4399 22.6239 4.59026 20.4656 6.86698 18.1806C8.72935 16.3115 10.6551 14.3788 11.4218 11.6954C12.1591 9.11461 11.9902 6.68805 11.5618 4.7667C13.4955 6.3142 14.8325 8.23549 15.5398 10.4859C16.4521 13.3884 15.5702 14.7721 14.6366 16.2373C13.7447 17.6371 12.5231 19.5542 14.185 22.1289C14.7167 22.9525 15.5428 23.531 16.5115 23.758C17.4437 23.9762 18.4531 23.87 19.431 23.4503C20.6297 22.9357 21.5958 22.0312 22.2185 20.8976C23.5937 23.7904 23.6399 26.0366 23.5093 27.2377Z" fill="url(#paint0_linear)"/>
<defs>
<linearGradient id="paint0_linear" x1="13" y1="0" x2="13" y2="35.9999" gradientUnits="userSpaceOnUse">
<stop stop-color="#FFB800"/>
<stop offset="1" stop-color="#FF0000"/>
</linearGradient>
</defs>
</svg>
